# Blender v3.3.1 OBJ File: ''
# www.blender.org
mtllib Clipboard.mtl
o Plane.002_Plane.001
v 0.024042 0.021873 -0.864159
v 0.072126 0.021873 -0.864159
v 0.072126 0.028844 -0.908076
v 0.024042 0.028844 -0.908076
v 0.072126 0.008626 -0.839556
v 0.168294 0.008860 -0.841034
v 0.168294 0.022342 -0.867114
v 0.216378 0.022577 -0.868592
v 0.204668 0.027008 -0.896512
v 0.176399 0.028844 -0.908076
v 0.024042 0.008626 -0.839556
v 0.216378 0.008978 -0.841772
v -0.168294 0.022342 -0.867114
v -0.072126 0.021873 -0.864159
v -0.072126 0.028844 -0.908076
v -0.176399 0.028844 -0.908076
v 0.024042 0.043613 -1.001119
v 0.072126 0.043613 -1.001119
v 0.059573 0.048364 -1.031051
v 0.029267 0.050332 -1.043449
v -0.024042 0.043613 -1.001119
v -0.029267 0.050332 -1.043449
v -0.072126 0.043613 -1.001119
v -0.059573 0.048364 -1.031051
v -0.072126 0.008626 -0.839556
v -0.024042 0.008626 -0.839556
v -0.024042 0.021873 -0.864159
v -0.024042 0.028844 -0.908076
v -0.216378 0.008978 -0.841772
v -0.168294 0.008860 -0.841034
v -0.216378 0.022577 -0.868592
v -0.204668 0.027008 -0.896512
v -0.176399 0.021977 -0.909167
v -0.072126 0.021977 -0.909167
v 0.216378 -0.003252 -0.809080
v 0.216378 0.003615 -0.807990
v 0.168294 0.003615 -0.807990
v 0.168294 -0.003252 -0.809080
v 0.059573 0.041497 -1.032141
v 0.072126 0.036746 -1.002210
v 0.072126 0.021977 -0.909167
v 0.176399 0.021977 -0.909167
v -0.072126 0.036746 -1.002210
v -0.059573 0.041497 -1.032141
v -0.168294 -0.003252 -0.809080
v -0.168294 0.003615 -0.807990
v -0.216378 0.003615 -0.807990
v -0.216378 -0.003252 -0.809080
v 0.204668 0.020141 -0.897602
v 0.216378 0.015709 -0.869682
v 0.072126 0.003615 -0.807990
v 0.072126 -0.003252 -0.809080
v 0.024042 0.003615 -0.807990
v 0.024042 -0.003252 -0.809080
v -0.072126 -0.003252 -0.809080
v -0.072126 0.003615 -0.807990
v 0.216378 0.002110 -0.842863
v -0.029267 0.043465 -1.044539
v 0.029267 0.043465 -1.044539
v -0.204668 0.020141 -0.897602
v -0.024042 0.003615 -0.807990
v -0.024042 -0.003252 -0.809080
v -0.216378 0.002110 -0.842863
v -0.216378 0.015709 -0.869682
v 0.058235 0.023399 -0.918126
v 0.058235 -0.005204 -0.922666
v 0.058235 0.006721 -0.997790
v 0.058235 0.035324 -0.993250
v -0.058235 0.023399 -0.918126
v -0.058235 -0.005204 -0.922666
v -0.058235 0.035324 -0.993250
v -0.058235 0.006721 -0.997790
v 0.683973 0.000000 -0.972614
v 0.683973 -0.007551 -0.972614
v 0.680304 -0.007551 -0.986307
v 0.680304 0.000000 -0.986307
v 0.680304 -0.000000 0.986307
v 0.680304 -0.007551 0.986307
v 0.683973 -0.007551 0.972614
v 0.683973 -0.000000 0.972614
v 0.656587 0.000000 -0.972614
v -0.670280 0.000000 -0.996331
v -0.670280 -0.007551 -0.996331
v -0.680304 -0.007551 -0.986307
v -0.680304 0.000000 -0.986307
v -0.656587 -0.000000 1.000000
v -0.656587 -0.007551 1.000000
v 0.656587 -0.007551 1.000000
v 0.656587 -0.000000 1.000000
v 0.670280 -0.007551 -0.996331
v 0.670280 0.000000 -0.996331
v -0.683973 -0.007551 -0.972614
v -0.683973 0.000000 -0.972614
v -0.656587 0.000000 -1.000000
v -0.656587 -0.007551 -1.000000
v 0.656587 0.000000 -1.000000
v 0.656587 -0.007551 -1.000000
v 0.656587 -0.000000 0.972614
v 0.670280 -0.000000 0.996331
v -0.683973 -0.000000 0.972614
v -0.656587 -0.000000 0.972614
v -0.656587 0.000000 -0.972614
v -0.680304 -0.000000 0.986307
v -0.670280 -0.000000 0.996331
v -0.680304 -0.007551 0.986307
v -0.670280 -0.007551 0.996331
v -0.683973 -0.007551 0.972614
v 0.670280 -0.007551 0.996331
vt 0.869419 0.135280
vt 0.868959 0.161533
vt 0.844376 0.161220
vt 0.845439 0.134933
vt 0.884236 0.161815
vt 0.881681 0.213861
vt 0.866323 0.212241
vt 0.862055 0.235174
vt 0.850404 0.227957
vt 0.845013 0.215141
vt 0.884652 0.135435
vt 0.877995 0.241173
vt 0.867960 0.032500
vt 0.869324 0.083087
vt 0.844685 0.083219
vt 0.847399 0.028768
vt 0.798312 0.132384
vt 0.796226 0.155940
vt 0.783072 0.147742
vt 0.777122 0.133541
vt 0.799234 0.109404
vt 0.779376 0.106188
vt 0.798900 0.087194
vt 0.786170 0.093709
vt 0.884502 0.082935
vt 0.884724 0.109146
vt 0.869522 0.109183
vt 0.845613 0.109350
vt 0.879730 0.005198
vt 0.882795 0.031407
vt 0.864779 0.009965
vt 0.853439 0.016334
vt 0.843728 0.027730
vt 0.840777 0.083023
vt 0.901906 0.243116
vt 0.897914 0.242806
vt 0.900132 0.215288
vt 0.904045 0.215514
vt 0.780068 0.150299
vt 0.795028 0.159330
vt 0.840735 0.161275
vt 0.841570 0.215883
vt 0.797959 0.083983
vt 0.783863 0.091213
vt 0.904492 0.030181
vt 0.900688 0.030370
vt 0.898720 0.003951
vt 0.902552 0.003670
vt 0.847625 0.230197
vt 0.860856 0.238844
vt 0.901859 0.162154
vt 0.905706 0.162239
vt 0.902220 0.135578
vt 0.906062 0.135605
vt 0.905749 0.082629
vt 0.901944 0.082695
vt 0.877742 0.245287
vt 0.897626 0.246690
vt 0.775963 0.105088
vt 0.773536 0.134093
vt 0.850940 0.013813
vt 0.902235 0.109077
vt 0.906062 0.109055
vt 0.844376 0.079793
vt 0.843940 0.165046
vt 0.879578 0.001356
vt 0.863960 0.006768
vt 0.898467 0.000112
vt 0.788704 0.347751
vt 0.773536 0.347751
vt 0.773536 0.307913
vt 0.788704 0.307913
vt 0.788704 0.408751
vt 0.773536 0.408751
vt 0.788704 0.448589
vt 0.773536 0.448589
vt 0.773536 0.246913
vt 0.788704 0.246913
vt 0.009823 0.027602
vt 0.000112 0.026509
vt 0.007189 0.012478
vt 0.013018 0.016813
vt 0.012065 0.975387
vt 0.006108 0.978621
vt 0.001494 0.965683
vt 0.009475 0.964750
vt 0.029345 0.026686
vt 0.756209 0.025287
vt 0.760190 0.019652
vt 0.768799 0.029272
vt 0.762981 0.032400
vt 0.743166 0.992246
vt 0.743891 0.999888
vt 0.028962 0.994464
vt 0.030014 0.985343
vt 0.017513 0.004026
vt 0.020504 0.010074
vt 0.773313 0.041900
vt 0.765528 0.042808
vt 0.745846 0.022393
vt 0.746948 0.013562
vt 0.031004 0.007927
vt 0.030330 0.000112
vt 0.029123 0.966536
vt 0.019032 0.982557
vt 0.763794 0.972816
vt 0.744534 0.973919
vt 0.746264 0.040996
vt 0.760697 0.983431
vt 0.753411 0.990077
vt 0.766426 0.987643
vt 0.756380 0.995971
vt 0.773313 0.973877
vt 0.015037 0.988453
vn 0.0000 0.9876 0.1568
vn 0.0037 0.8825 0.4703
vn 0.0074 0.8873 0.4611
vn 0.0064 0.8846 0.4663
vn 0.0038 0.8825 0.4702
vn 0.0000 0.8805 0.4741
vn 0.0072 0.8901 0.4557
vn -0.0037 0.8825 0.4703
vn -0.0038 0.8825 0.4702
vn -0.0072 0.8901 0.4557
vn -0.0074 0.8873 0.4611
vn -0.0064 0.8846 0.4663
vn 0.0000 0.1569 -0.9876
vn 0.0000 -0.1568 0.9876
vn 0.9239 0.0600 -0.3779
vn -0.9239 0.0600 -0.3779
vn 0.9239 0.0600 -0.3780
vn 1.0000 -0.0000 0.0000
vn 0.0000 0.1568 -0.9876
vn -0.3827 0.1449 -0.9124
vn 0.3827 0.1448 -0.9125
vn 0.3827 0.1449 -0.9124
vn -1.0000 0.0000 0.0000
vn -0.3827 0.1448 -0.9125
vn -0.9239 0.0600 -0.3780
vn 0.9659 0.0000 -0.2588
vn 0.9659 0.0000 0.2588
vn 0.0000 1.0000 0.0000
vn -0.7071 0.0000 -0.7071
vn 0.0000 0.0000 1.0000
vn 0.7071 0.0000 -0.7071
vn -0.9659 0.0000 -0.2588
vn -0.2588 0.0000 -0.9659
vn 0.0000 0.0000 -1.0000
vn 0.2588 0.0000 -0.9659
vn -0.7071 0.0000 0.7071
vn 0.2588 0.0000 0.9659
vn -0.9659 0.0000 0.2588
vn -0.2588 0.0000 0.9659
vn 0.7071 0.0000 0.7071
usemtl Metal
s 1
f 1/1/1 2/2/1 3/3/1 4/4/1
f 5/5/2 6/6/3 7/7/4 2/2/5
f 7/7/1 8/8/1 9/9/1 10/10/1
f 11/11/6 5/5/2 2/2/5 1/1/6
f 6/6/3 12/12/7 8/8/7 7/7/4
f 13/13/1 14/14/1 15/15/1 16/16/1
f 17/17/1 18/18/1 19/19/1 20/20/1
f 21/21/1 17/17/1 20/20/1 22/22/1
f 23/23/1 21/21/1 22/22/1 24/24/1
f 25/25/8 26/26/6 27/27/6 14/14/9
f 26/26/6 11/11/6 1/1/6 27/27/6
f 4/4/1 3/3/1 18/18/1 17/17/1
f 15/15/1 28/28/1 21/21/1 23/23/1
f 27/27/1 1/1/1 4/4/1 28/28/1
f 28/28/1 4/4/1 17/17/1 21/21/1
f 14/14/1 27/27/1 28/28/1 15/15/1
f 29/29/10 30/30/11 13/13/12 31/31/10
f 31/31/1 13/13/1 16/16/1 32/32/1
f 30/30/11 25/25/8 14/14/9 13/13/12
f 33/33/13 16/16/13 15/15/13 34/34/13
f 35/35/14 36/36/14 37/37/14 38/38/14
f 39/39/15 19/19/15 18/18/15 40/40/15
f 41/41/13 3/3/13 10/10/13 42/42/13
f 43/43/16 23/23/16 24/24/16 44/44/16
f 45/45/14 46/46/14 47/47/14 48/48/14
f 49/49/17 9/9/17 8/8/17 50/50/17
f 38/38/14 37/37/14 51/51/14 52/52/14
f 52/52/14 51/51/14 53/53/14 54/54/14
f 55/55/14 56/56/14 46/46/14 45/45/14
f 57/57/18 12/12/18 36/36/18 35/58/18
f 58/59/19 22/22/19 20/20/19 59/60/19
f 60/61/20 32/32/20 16/16/20 33/33/20
f 59/60/21 20/20/21 19/19/21 39/39/21
f 42/42/22 10/10/22 9/9/22 49/49/22
f 54/54/14 53/53/14 61/62/14 62/63/14
f 34/64/23 15/15/23 23/23/23 43/43/23
f 44/44/24 24/24/24 22/22/24 58/59/24
f 62/63/14 61/62/14 56/56/14 55/55/14
f 40/40/18 18/18/18 3/3/18 41/65/18
f 63/66/23 29/29/23 31/31/23 64/67/23
f 64/67/25 31/31/25 32/32/25 60/61/25
f 2/2/1 7/7/1 10/10/1 3/3/1
f 48/68/23 47/47/23 29/29/23 63/66/23
f 50/50/18 8/8/18 12/12/18 57/57/18
f 46/46/1 56/56/1 25/25/1 30/30/1
f 47/47/1 46/46/1 30/30/1 29/29/1
f 61/62/1 53/53/1 11/11/1 26/26/1
f 56/56/1 61/62/1 26/26/1 25/25/1
f 37/37/1 36/36/1 12/12/1 6/6/1
f 53/53/1 51/51/1 5/5/1 11/11/1
f 51/51/1 37/37/1 6/6/1 5/5/1
f 65/69/18 66/70/18 67/71/18 68/72/18
f 69/73/14 70/74/14 66/70/14 65/69/14
f 71/75/23 72/76/23 70/74/23 69/73/23
f 68/72/19 67/71/19 72/77/19 71/78/19
usemtl Board
f 73/79/26 74/80/26 75/81/26 76/82/26
f 77/83/27 78/84/27 79/85/27 80/86/27
f 81/87/28 73/79/28 76/82/28
f 82/88/29 83/89/29 84/90/29 85/91/29
f 86/92/30 87/93/30 88/94/30 89/95/30
f 76/82/31 75/81/31 90/96/31 91/97/31
f 85/91/32 84/90/32 92/98/32 93/99/32
f 94/100/33 95/101/33 83/89/33 82/88/33
f 96/102/34 97/103/34 95/101/34 94/100/34
f 98/104/28 89/95/28 99/105/28 77/83/28
f 81/87/28 98/104/28 80/86/28 73/79/28
f 93/99/28 100/106/28 101/107/28 102/108/28
f 102/108/28 94/100/28 82/88/28 85/91/28
f 103/109/28 104/110/28 86/92/28 101/107/28
f 102/108/28 101/107/28 98/104/28 81/87/28
f 102/108/28 81/87/28 96/102/28 94/100/28
f 101/107/28 86/92/28 89/95/28 98/104/28
f 80/86/28 98/104/28 77/83/28
f 100/106/28 103/109/28 101/107/28
f 93/99/28 102/108/28 85/91/28
f 96/102/28 81/87/28 76/82/28 91/97/28
f 91/97/35 90/96/35 97/103/35 96/102/35
f 103/109/36 105/111/36 106/112/36 104/110/36
f 93/99/23 92/98/23 107/113/23 100/106/23
f 89/95/37 88/94/37 108/114/37 99/105/37
f 100/106/38 107/113/38 105/111/38 103/109/38
f 80/86/18 79/85/18 74/80/18 73/79/18
f 104/110/39 106/112/39 87/93/39 86/92/39
f 99/105/40 108/114/40 78/84/40 77/83/40
o Plane
v -0.619515 0.002200 0.932722
v 0.619515 0.002200 0.932722
v -0.619515 0.002200 -0.931628
v 0.619515 0.002200 -0.931628
vt 0.000000 0.067825
vt 1.000000 0.067825
vt 1.000000 1.000000
vt 0.000000 1.000000
vn 0.0000 1.0000 0.0000
usemtl None
s off
f 109/115/41 110/116/41 112/117/41 111/118/41
