# Blender v3.3.1 OBJ File: 'Office.blend'
# www.blender.org
mtllib Paper Tray.mtl
o Plane_Plane.116
v -2.945807 -0.558883 2.393542
v -1.593883 -0.558883 2.393542
v -2.945807 -0.558924 0.379513
v -1.593883 -0.558924 0.379513
v -2.945807 -0.200957 2.137417
v -1.593883 -0.200957 2.137417
v -2.945807 -0.200920 0.379513
v -1.593883 -0.200920 0.379513
v -2.922257 -0.521034 2.366459
v -1.617433 -0.521034 2.366459
v -2.917807 -0.530924 0.407513
v -1.621883 -0.530924 0.407513
v -2.917807 -0.200957 2.137417
v -1.621883 -0.200957 2.137417
v -2.917807 -0.200920 0.407513
v -1.621883 -0.200920 0.407513
vt 0.000000 0.000000
vt 0.000000 1.000000
vt 1.000000 1.000000
vt 1.000000 0.000000
vt 1.000000 1.000000
vt 1.000000 0.120804
vt 0.000000 0.120804
vt 0.000000 1.000000
vt 0.000000 0.000000
vt 1.000000 0.000000
vt 1.000000 1.000000
vt 0.000000 1.000000
vt 1.000000 0.120804
vt 1.000000 1.000000
vt 0.000000 1.000000
vt 0.000000 0.120804
vn 0.0000 -1.0000 0.0000
vn 1.0000 0.0000 0.0000
vn -1.0000 0.0000 0.0000
vn 0.0000 0.0000 -1.0000
vn 0.0000 1.0000 -0.0050
vn -1.0000 -0.0064 0.0012
vn 1.0000 -0.0064 0.0012
vn 0.0000 0.0000 1.0000
vn 0.0000 0.5819 0.8132
vn -0.0000 1.0000 0.0000
usemtl None
s off
f 1/1/1 3/2/1 4/3/1 2/4/1
f 2/4/2 4/3/2 8/5/2 6/6/2
f 3/2/3 1/1/3 5/7/3 7/8/3
f 4/3/4 3/2/4 7/8/4 8/5/4
f 9/9/5 10/10/5 12/11/5 11/12/5
f 10/10/6 14/13/6 16/14/6 12/11/6
f 11/12/7 15/15/7 13/16/7 9/9/7
f 12/11/8 16/14/8 15/15/8 11/12/8
f 1/1/9 2/4/9 10/10/9 9/9/9
f 7/8/10 5/7/10 13/16/10 15/15/10
f 6/6/10 8/5/10 16/14/10 14/13/10
f 8/5/10 7/8/10 15/15/10 16/14/10
f 2/4/9 6/6/9 14/13/9 10/10/9
f 5/7/9 1/1/9 9/9/9 13/16/9
